<svg xmlns="http://www.w3.org/2000/svg"  viewBox="0 0 48 48" width="96px" height="96px"><path fill="#373837" d="M3.727,10.106c0,5,0.064,3.611,0.069,8.11c0.004,3.752,0.362,6.202,0.209,8.892	c-0.127,2.228-0.438,4.42-0.291,6.647c0.2,3.044-1.134,7.326,1.663,9.489c1.768,1.367,4.719,0.831,6.893,0.769	c3.321-0.095,8.453,0.249,10.628,0.237c7.27-0.038,7.204-0.437,12.838-0.208c2.056,0.083,4.888,0.352,6.492-0.935	c1.545-1.24,2.06-3.227,2.017-6.598c-0.057-4.447-0.357-7.059-0.334-11.506c0.009-1.699,0.321-4.365,0.329-6.064	c0.007-1.371,0.215-4.453,0.193-5.824c-0.02-1.275-0.099-4.203-0.205-5.508c-0.106-1.305-1.108-2.747-2.286-3.32	c-0.502-0.245-1.067-0.315-1.611-0.444c-1.02-0.242-10.078-0.128-10.611-0.075c-5,0.5-2.027,0.143-7.577,0.708	c-1.381,0.141-3.679-0.094-6.328-0.106c-3.513-0.016-5.001-0.599-7.087-0.263C5.724,4.59,3.534,6.197,3.727,10.106"/><path fill="#010101" d="M22.793,44.75c-0.866,0-2.125-0.048-3.573-0.104c-2.316-0.089-4.939-0.189-6.938-0.133	c-0.404,0.012-0.835,0.039-1.28,0.068c-2.037,0.135-4.347,0.282-5.932-0.942c-2.26-1.746-2.078-4.683-1.917-7.274	c0.058-0.923,0.112-1.795,0.06-2.576c-0.106-1.622,0.024-3.237,0.151-4.799c0.051-0.635,0.103-1.271,0.14-1.91	c0.083-1.464,0.013-2.854-0.069-4.461c-0.065-1.274-0.139-2.718-0.14-4.402c-0.002-2.156-0.018-2.956-0.034-3.759	c-0.017-0.871-0.035-1.745-0.035-4.34c-0.179-3.708,1.645-5.896,5.42-6.505c1.232-0.198,2.245-0.095,3.527,0.034	c0.992,0.102,2.117,0.216,3.642,0.223c1.101,0.005,2.142,0.048,3.082,0.087c1.297,0.054,2.418,0.1,3.193,0.021	c2.909-0.297,3.484-0.34,4.085-0.386c0.546-0.042,1.113-0.085,3.493-0.322c0.458-0.047,9.636-0.185,10.777,0.086	c0.132,0.031,0.266,0.059,0.399,0.087c0.435,0.09,0.883,0.184,1.315,0.395c1.342,0.653,2.445,2.256,2.565,3.728	c0.109,1.346,0.187,4.369,0.206,5.542c0.012,0.773-0.046,2.057-0.103,3.297c-0.044,0.983-0.087,1.93-0.091,2.537	c-0.004,0.867-0.086,1.986-0.166,3.069c-0.078,1.063-0.159,2.163-0.163,2.995c-0.012,2.45,0.073,4.32,0.163,6.3	c0.072,1.575,0.146,3.205,0.171,5.196c0.047,3.675-0.592,5.701-2.204,6.994c-1.608,1.291-4.185,1.171-6.258,1.071l-0.568-0.025	c-3.118-0.129-4.461-0.062-6.321,0.031c-1.455,0.071-3.265,0.16-6.493,0.178C22.865,44.75,22.83,44.75,22.793,44.75z M13.57,43.496	c1.783,0,3.834,0.079,5.689,0.15c1.497,0.058,2.791,0.104,3.635,0.104c3.206-0.018,5.004-0.105,6.449-0.177	c1.885-0.095,3.246-0.161,6.411-0.032l0.574,0.026c1.902,0.09,4.271,0.202,5.585-0.852c1.342-1.077,1.872-2.874,1.83-6.201	c-0.025-1.976-0.099-3.597-0.17-5.165c-0.091-1.992-0.177-3.874-0.164-6.351c0.004-0.865,0.086-1.982,0.166-3.062	c0.078-1.065,0.159-2.168,0.163-3.001c0.003-0.617,0.047-1.579,0.092-2.577c0.056-1.226,0.113-2.493,0.101-3.236	c-0.019-1.162-0.096-4.155-0.203-5.477c-0.092-1.129-0.973-2.407-2.006-2.91c-0.32-0.156-0.689-0.232-1.081-0.314	c-0.143-0.029-0.285-0.06-0.427-0.093C39.29,4.109,30.226,4.219,29.77,4.264c-2.396,0.24-2.968,0.283-3.518,0.325	c-0.597,0.045-1.169,0.089-4.059,0.383c-0.846,0.087-2,0.038-3.336-0.017c-0.929-0.038-1.958-0.081-3.045-0.086	c-1.573-0.008-2.723-0.124-3.738-0.228c-1.209-0.122-2.165-0.22-3.267-0.043c-3.238,0.522-4.736,2.315-4.58,5.482l0,0.024	c0,2.592,0.017,3.463,0.034,4.331c0.016,0.808,0.032,1.611,0.034,3.778c0.001,1.66,0.075,3.09,0.139,4.352	c0.083,1.638,0.156,3.052,0.069,4.569c-0.037,0.647-0.089,1.291-0.141,1.935c-0.129,1.596-0.252,3.104-0.15,4.651	c0.056,0.846,0,1.749-0.06,2.705C4,38.884,3.842,41.425,5.682,42.848c1.285,0.993,3.395,0.855,5.256,0.735	c0.458-0.029,0.901-0.059,1.317-0.07C12.67,43.501,13.111,43.496,13.57,43.496z"/><path fill="#ef4754" d="M18.028,18.015c0.377,0.905,1.105,2.655,1.442,3.575c0.87,2.374,1.736,3.72,2.831,5.999	c1.772,3.686,2.345,7.91,4.288,11.508c0.072,0.134,0.151,0.272,0.278,0.355c0.171,0.111,0.39,0.099,0.593,0.086	c1.722-0.104,3.686-0.056,5.36,0.363c0.204-1.932-0.589-3.826-1.519-5.532s-2.868-7.361-3.124-8.406	c-0.649-2.651-2.889-5.85-4.239-10.318c-0.67-2.216-1.186-3.857-2.152-5.961c-0.068-0.149-0.141-0.303-0.269-0.405	c-0.164-0.131-0.388-0.152-0.598-0.167c-1.734-0.121-4.036,0.112-5.774,0.154C15.145,9.266,16.781,15.024,18.028,18.015z"/><path fill="#ef4754" d="M15.165,9.286c-0.262,4.504,0.034,10.031,0.473,14.521c0.076,0.776,0.173,1.55,0.211,2.329	c0.042,0.846,0.014,1.694-0.013,2.541c-0.088,2.714-0.176,5.428-0.263,8.141c-0.028,0.853-0.055,1.706-0.083,2.56	c-0.007,0.21,0.002,0.454,0.17,0.58c0.127,0.095,0.301,0.086,0.459,0.073c2.092-0.177,2.483-0.615,5.702-0.615	c-0.198-4.006-0.224-8.447,0.077-12.447L15.165,9.286z"/><path fill="#ef4754" d="M26.906,22.41c-0.148-3.858,0.109-9.499-0.039-13.357c2.117-0.047,3.83,0.112,5.947,0.066	c0.3,2.968-0.051,6.278-0.278,9.252c-0.084,1.109,0.056,1.815,0.112,2.925c0.049,0.967,0.257,3.641,0.294,5.406	c0.085,4.102,0.178,7.383-0.123,11.475L26.906,22.41z"/><path fill="#010101" d="M32.82,40.401c-0.041,0-0.082-0.005-0.122-0.015c-1.765-0.442-3.805-0.432-5.208-0.35	c-0.23,0.014-0.583,0.037-0.895-0.165c-0.241-0.157-0.364-0.386-0.446-0.538c-1.061-1.964-1.727-4.124-2.37-6.212	c-0.55-1.786-1.119-3.633-1.929-5.316c-0.352-0.733-0.681-1.369-0.993-1.974c-0.647-1.252-1.258-2.435-1.857-4.07	c-0.338-0.923-1.079-2.7-1.434-3.555l0,0c-1.244-2.983-2.835-8.568-2.902-8.805c-0.042-0.148-0.013-0.309,0.079-0.434	c0.092-0.124,0.236-0.199,0.391-0.203c0.574-0.014,1.21-0.048,1.867-0.084c1.36-0.074,2.768-0.149,3.953-0.068	c0.232,0.017,0.583,0.041,0.876,0.275c0.223,0.177,0.332,0.415,0.411,0.588c0.967,2.106,1.49,3.753,2.176,6.023	c0.705,2.331,1.659,4.318,2.501,6.071c0.766,1.598,1.428,2.977,1.746,4.272c0.241,0.985,2.164,6.61,3.077,8.286	c0.855,1.568,1.807,3.648,1.577,5.824c-0.015,0.144-0.092,0.274-0.21,0.357C33.021,40.37,32.921,40.401,32.82,40.401z M28.967,38.991c1.059,0,2.25,0.071,3.385,0.294c-0.001-1.709-0.782-3.378-1.49-4.677c-0.967-1.775-2.916-7.487-3.17-8.526	c-0.292-1.195-0.934-2.531-1.676-4.077c-0.857-1.786-1.829-3.811-2.556-6.216c-0.674-2.23-1.187-3.847-2.128-5.896	C21.298,9.82,21.243,9.7,21.206,9.671c-0.051-0.041-0.234-0.054-0.322-0.06c-1.128-0.082-2.501-0.004-3.83,0.068	c-0.429,0.023-0.85,0.047-1.251,0.063c0.457,1.562,1.703,5.722,2.686,8.079l0,0c0.358,0.861,1.104,2.652,1.45,3.596	c0.577,1.576,1.147,2.679,1.806,3.955c0.317,0.612,0.649,1.257,1.006,1.999c0.842,1.751,1.422,3.635,1.983,5.455	c0.629,2.043,1.28,4.154,2.294,6.032c0.024,0.045,0.082,0.151,0.112,0.175c0.04,0.019,0.207,0.011,0.288,0.005	C27.886,39.012,28.408,38.991,28.967,38.991z"/><path fill="#010101" d="M15.968,40.539c-0.177,0-0.406-0.03-0.607-0.181c-0.393-0.294-0.377-0.786-0.37-0.997l0.346-10.701	c0.026-0.822,0.054-1.674,0.013-2.5c-0.028-0.567-0.087-1.132-0.147-1.696l-0.062-0.608c-0.311-3.167-0.785-9.274-0.475-14.599	c0.016-0.275,0.259-0.512,0.528-0.47c0.276,0.016,0.486,0.252,0.47,0.528c-0.305,5.256,0.165,11.305,0.472,14.442l0.062,0.602	c0.061,0.583,0.122,1.166,0.151,1.752c0.042,0.867,0.014,1.738-0.013,2.582L15.99,39.395c-0.002,0.065-0.001,0.112,0.001,0.145	c0.023-0.001,0.052-0.003,0.085-0.006c0.759-0.064,1.276-0.162,1.824-0.266c0.834-0.157,1.693-0.319,3.397-0.348	c-0.143-3.147-0.226-7.625,0.103-11.988c0.021-0.275,0.256-0.492,0.536-0.462c0.275,0.021,0.482,0.261,0.461,0.536	c-0.343,4.56-0.231,9.252-0.076,12.386c0.007,0.137-0.043,0.27-0.137,0.369c-0.095,0.1-0.226,0.155-0.362,0.155	c-1.966,0-2.825,0.162-3.735,0.334c-0.548,0.104-1.115,0.211-1.924,0.279C16.111,40.534,16.045,40.539,15.968,40.539z M16.002,39.606h0.01H16.002z"/><path fill="#010101" d="M32.82,38.677c-0.012,0-0.025,0-0.037-0.001c-0.275-0.021-0.482-0.261-0.462-0.536	c0.282-3.84,0.218-6.889,0.136-10.749l-0.014-0.678c-0.025-1.227-0.135-2.903-0.215-4.128c-0.035-0.527-0.064-0.973-0.079-1.264	c-0.017-0.343-0.042-0.646-0.067-0.935c-0.054-0.645-0.105-1.253-0.044-2.055l0.097-1.229c0.202-2.502,0.41-5.084,0.223-7.478	c-0.894,0.009-1.723-0.017-2.532-0.04c-0.783-0.023-1.591-0.048-2.442-0.04c0.053,1.847,0.027,4.053,0.003,6.191	c-0.027,2.329-0.054,4.737,0.019,6.654c0.011,0.276-0.205,0.509-0.48,0.52c-0.25,0.001-0.508-0.205-0.519-0.48	c-0.075-1.942-0.047-4.363-0.02-6.704c0.027-2.329,0.054-4.737-0.019-6.653c-0.005-0.135,0.043-0.265,0.135-0.362	s0.219-0.154,0.353-0.157c1.069-0.023,2.05,0.005,3,0.033c0.935,0.027,1.903,0.054,2.947,0.032c0.309-0.001,0.483,0.19,0.509,0.449	c0.264,2.61,0.039,5.409-0.18,8.115l-0.097,1.226c-0.055,0.721-0.009,1.265,0.044,1.895c0.025,0.3,0.051,0.613,0.069,0.968	c0.014,0.288,0.043,0.728,0.077,1.25c0.081,1.233,0.191,2.923,0.217,4.171l0.014,0.678c0.079,3.733,0.147,6.957-0.139,10.845	C33.299,38.477,33.079,38.677,32.82,38.677z"/></svg>