<?xml version="1.0" encoding="UTF-8"?>
<svg xmlns="http://www.w3.org/2000/svg" xmlns:xlink="http://www.w3.org/1999/xlink" viewBox="0 0 20 20" width="20px" height="20px">
<g id="surface41378294">
<path style=" stroke:none;fill-rule:nonzero;fill:rgb(96.078432%,96.078432%,96.078432%);fill-opacity:1;" d="M 14.375 1.875 C 10.625 1.875 11.4375 4.976562 10.9375 6.386719 C 10.578125 7.40625 7.734375 10.300781 5.382812 12.589844 C 5.160156 12.53125 4.925781 12.5 4.6875 12.5 C 3.132812 12.5 1.875 13.757812 1.875 15.3125 C 1.875 16.867188 3.132812 18.125 4.6875 18.125 C 6.242188 18.125 7.5 16.867188 7.5 15.3125 C 7.5 15.066406 7.464844 14.828125 7.40625 14.601562 C 9.507812 12.609375 12.035156 10.265625 12.691406 9.875 C 13.125 9.613281 13.75 9.6875 15.625 9.6875 C 16.886719 9.6875 18.335938 7.984375 18.75 6.875 L 18.4375 5.9375 C 17.59375 6.46875 16.75 7 15.90625 7.53125 C 15.664062 7.472656 15.035156 7.394531 14.371094 6.554688 C 13.558594 5.519531 13.75 4.0625 13.75 4.0625 L 16.25 2.5 L 15.625 1.875 Z M 4.6875 14.0625 C 5.378906 14.0625 5.9375 14.621094 5.9375 15.3125 C 5.9375 16.003906 5.378906 16.5625 4.6875 16.5625 C 3.996094 16.5625 3.4375 16.003906 3.4375 15.3125 C 3.4375 14.621094 3.996094 14.0625 4.6875 14.0625 Z M 4.6875 14.0625 "/>
</g>
</svg>
